<svg xmlns="http://www.w3.org/2000/svg" width="305" height="305" viewBox="0 0 305 305" version="1.1"><path d="M 82.459 66.825 C 80.236 67.865, 77.185 70.179, 75.680 71.969 L 72.942 75.222 76.693 78.020 L 80.445 80.817 83.884 77.797 C 86.940 75.114, 87.865 74.829, 92.172 75.243 C 97.868 75.790, 100.607 77.927, 101.989 82.900 C 102.615 85.154, 102.991 114.850, 102.994 162.302 L 103 238.105 108.250 237.802 L 113.500 237.500 113.761 197.750 L 114.023 158 123.198 158 C 128.299 158, 135.217 157.287, 138.779 156.393 C 142.303 155.509, 145.529 155.172, 145.948 155.643 C 146.367 156.114, 159.156 174.130, 174.368 195.677 C 194.254 223.843, 203.030 235.474, 205.596 237.059 C 212.174 241.125, 221.384 240.610, 228.250 235.793 C 229.762 234.732, 231 233.461, 231 232.968 C 231 232.475, 229.388 230.977, 227.418 229.638 C 224.159 227.423, 223.595 227.329, 221.168 228.596 C 217.668 230.422, 214.422 230.365, 211.154 228.420 C 209.694 227.551, 196.493 209.889, 181.819 189.170 L 155.138 151.500 157.712 149.562 C 164.238 144.650, 177.593 123.463, 197.304 86.750 L 206.834 69 200.465 69 L 194.096 69 190.124 77.476 C 183.372 91.885, 170.036 116.082, 163.933 125 C 156.304 136.147, 150.732 141.703, 144 144.876 C 139.172 147.151, 136.941 147.513, 125.750 147.834 L 113 148.201 112.994 115.850 C 112.991 97.264, 112.561 81.961, 111.984 79.882 C 109.464 70.809, 102.784 65.788, 92.520 65.250 C 88.183 65.023, 85.370 65.463, 82.459 66.825" stroke="none" fill="#fbfafa" fill-rule="evenodd"/><path d="M 133.500 0.614 C 115.465 3.243, 98.707 8.549, 82.777 16.674 C 68.035 24.193, 56.372 32.687, 44.530 44.530 C 23.534 65.525, 9.502 91.295, 2.824 121.119 C 0.795 130.181, 0.500 134.168, 0.500 152.500 C 0.500 170.832, 0.795 174.819, 2.824 183.881 C 16.454 244.753, 62.804 290.357, 123.565 302.678 C 137.167 305.436, 169.939 305.202, 183.183 302.251 C 197.466 299.070, 207.078 295.651, 220.500 288.978 C 262.245 268.223, 292.406 229.273, 302.028 183.694 C 303.095 178.637, 303.976 173.037, 303.984 171.250 C 303.993 169.463, 304.450 168, 305 168 C 305.627 168, 305.994 161.760, 305.985 151.250 C 305.974 140.066, 305.647 134.998, 305 136 C 304.261 137.144, 304.027 136.755, 304.015 134.360 C 303.964 123.765, 296.809 99.564, 289.299 84.583 C 268.492 43.074, 231.836 14.237, 186 3.320 C 177.061 1.191, 172.601 0.771, 156 0.498 C 145.275 0.322, 135.150 0.374, 133.500 0.614 M 82.459 66.825 C 80.236 67.865, 77.185 70.179, 75.680 71.969 L 72.942 75.222 76.693 78.020 L 80.445 80.817 83.884 77.797 C 86.940 75.114, 87.865 74.829, 92.172 75.243 C 97.868 75.790, 100.607 77.927, 101.989 82.900 C 102.615 85.154, 102.991 114.850, 102.994 162.302 L 103 238.105 108.250 237.802 L 113.500 237.500 113.761 197.750 L 114.023 158 123.198 158 C 128.299 158, 135.217 157.287, 138.779 156.393 C 142.303 155.509, 145.529 155.172, 145.948 155.643 C 146.367 156.114, 159.156 174.130, 174.368 195.677 C 194.254 223.843, 203.030 235.474, 205.596 237.059 C 212.174 241.125, 221.384 240.610, 228.250 235.793 C 229.762 234.732, 231 233.461, 231 232.968 C 231 232.475, 229.388 230.977, 227.418 229.638 C 224.159 227.423, 223.595 227.329, 221.168 228.596 C 217.668 230.422, 214.422 230.365, 211.154 228.420 C 209.694 227.551, 196.493 209.889, 181.819 189.170 L 155.138 151.500 157.712 149.562 C 164.238 144.650, 177.593 123.463, 197.304 86.750 L 206.834 69 200.465 69 L 194.096 69 190.124 77.476 C 183.372 91.885, 170.036 116.082, 163.933 125 C 156.304 136.147, 150.732 141.703, 144 144.876 C 139.172 147.151, 136.941 147.513, 125.750 147.834 L 113 148.201 112.994 115.850 C 112.991 97.264, 112.561 81.961, 111.984 79.882 C 109.464 70.809, 102.784 65.788, 92.520 65.250 C 88.183 65.023, 85.370 65.463, 82.459 66.825 M 0.409 152.500 C 0.408 161.850, 0.558 165.810, 0.743 161.299 C 0.928 156.789, 0.929 149.139, 0.745 144.299 C 0.562 139.460, 0.410 143.150, 0.409 152.500" stroke="none" fill="#e46c94" fill-rule="evenodd"/></svg>